<?xml version="1.0" encoding="UTF-8"?><svg id="Layer_2" xmlns="http://www.w3.org/2000/svg" viewBox="-4 -19 178 178"><polygon points="70.04 44.04 82.75 22.02 70.04 0 44.61 0 31.89 22.02 44.61 44.04 70.04 44.04"/><polygon points="41.94 64.21 31.46 46.05 10.49 46.05 0 64.21 10.49 82.37 31.46 82.37 41.94 64.21"/><polygon points="125.06 44.04 137.78 22.02 125.06 0 99.63 0 86.92 22.02 99.63 44.04 125.06 44.04"/><polygon points="159.18 46.05 138.21 46.05 127.73 64.21 138.21 82.37 159.18 82.37 169.67 64.21 159.18 46.05"/><polygon points="58.08 54.64 31.33 100.98 55.09 142.12 66.07 123.08 101.9 123.08 113.73 143.59 138.34 100.98 111.59 54.64 58.08 54.64"/></svg>